<?xml version="1.0" encoding="UTF-8"?>
<svg width="128" height="128" viewBox="0 0 128 128" xmlns="http://www.w3.org/2000/svg">
  <!-- Background circle with gradient -->
  <defs>
    <linearGradient id="backgroundGradient" x1="0%" y1="0%" x2="100%" y2="100%">
      <stop offset="0%" style="stop-color:#4CAF50;stop-opacity:1" />
      <stop offset="100%" style="stop-color:#2196F3;stop-opacity:1" />
    </linearGradient>
    <linearGradient id="iconGradient" x1="0%" y1="0%" x2="100%" y2="100%">
      <stop offset="0%" style="stop-color:#FFFFFF;stop-opacity:1" />
      <stop offset="100%" style="stop-color:#E3F2FD;stop-opacity:1" />
    </linearGradient>
  </defs>
  
  <!-- Background -->
  <circle cx="64" cy="64" r="60" fill="url(#backgroundGradient)" stroke="#1976D2" stroke-width="2"/>
  
  <!-- Git branch icon -->
  <g fill="url(#iconGradient)" stroke="url(#iconGradient)" stroke-width="2">
    <!-- Main branch line -->
    <line x1="32" y1="45" x2="32" y2="85" stroke-width="3"/>
    
    <!-- Feature branch -->
    <path d="M32 55 Q40 50 48 55 L48 75" fill="none" stroke-width="3"/>
    
    <!-- Branch nodes -->
    <circle cx="32" cy="45" r="4" fill="#FFFFFF"/>
    <circle cx="32" cy="65" r="4" fill="#FFFFFF"/>
    <circle cx="32" cy="85" r="4" fill="#FFFFFF"/>
    <circle cx="48" cy="55" r="4" fill="#FFFFFF"/>
    <circle cx="48" cy="75" r="4" fill="#FFFFFF"/>
    
    <!-- Merge line -->
    <path d="M48 75 Q40 80 32 85" fill="none" stroke-width="3"/>
  </g>
  
  <!-- Musical note overlay -->
  <g fill="url(#iconGradient)" stroke="none">
    <!-- Note stem -->
    <rect x="88" y="35" width="3" height="25" rx="1.5"/>
    
    <!-- Note head -->
    <ellipse cx="85" cy="58" rx="5" ry="3" transform="rotate(-20 85 58)"/>
    
    <!-- Musical symbol -->
    <text x="75" y="95" font-family="serif" font-size="16" fill="url(#iconGradient)">♪</text>
  </g>
  
  <!-- Sparkle for AI -->
  <g fill="#FFC107" opacity="0.9">
    <polygon points="96,20 98,26 104,24 98,30 96,36 94,30 88,24 94,26"/>
    <polygon points="16,95 17,98 21,97 17,101 16,104 15,101 11,97 15,98"/>
  </g>
</svg>
